# xmcd
#
# Track frame offsets:
# 150
# 17367
# 31288
# 51388
# 65443
# 77752
# 95853
# 110847
# 125876
# 140108
# 161392
# 175965
# 197803
# 211387
# 227670
#
# Disc length: 3286 seconds
#
#
# Revision: 0
# Processed by: cddbd v1.4PL0 Copyright (c) Steve Scherf et al.
# Submitted via: FreeRIP 2.00 
#
DISCID=dc0cd40f
DTITLE=Shirley Myers - There will come a day
DYEAR=2000
DGENRE=Country
TTITLE0=I'm missing you
TTITLE1=Let it rain
TTITLE2=You left me
TTITLE3=Real true love
TTITLE4=Do you love me
TTITLE5=You better be sure
TTITLE6=Fallin' out of love
TTITLE7=Haven't you heard
TTITLE8=I give up
TTITLE9=Why can't it be you
TTITLE10=One last step
TTITLE11=There will come a day
TTITLE12=Saturday night
TTITLE13=I'll still be holding you
TTITLE14=No one
EXTD=
EXTT0=
EXTT1=
EXTT2=
EXTT3=
EXTT4=
EXTT5=
EXTT6=
EXTT7=
EXTT8=
EXTT9=
EXTT10=
EXTT11=
EXTT12=
EXTT13=
EXTT14=
PLAYORDER=
